<svg width="56" height="57" viewBox="0 0 56 57" fill="none" xmlns="http://www.w3.org/2000/svg">
<path d="M27.6696 56.8C12.5538 56.8 0.300049 44.264 0.300049 28.8C0.300049 13.336 12.5538 0.800003 27.6696 0.800003C42.7852 0.800003 55.0389 13.336 55.0389 28.8C55.0389 44.264 42.7852 56.8 27.6696 56.8ZM20.3727 44.3805H25.1196V37.6867C26.4881 38.1024 27.7924 38.3101 29.0326 38.3101C31.2778 38.3101 33.1594 37.6019 34.6775 36.1856C36.1957 34.7691 36.9549 33.0054 36.9549 30.8946C36.9549 29.2211 36.4096 27.7528 35.319 26.4894C34.2286 25.2262 32.6891 24.2829 30.7004 23.6594C32.1972 22.8499 33.3198 21.9203 34.0682 20.8702C34.8166 19.8203 35.1907 18.6445 35.1907 17.343C35.1907 15.593 34.5841 14.1957 33.3705 13.1512C32.1571 12.1066 30.5347 11.5844 28.5034 11.5844C25.7879 11.5844 23.7538 12.4594 22.4013 14.2094C21.0489 15.9594 20.3727 18.5843 20.3727 22.0843V44.3805ZM26.0979 22.8718V25.8086H26.5308C28.1346 25.8086 29.479 26.3062 30.5641 27.3016C31.6492 28.297 32.1919 29.5274 32.1919 30.993C32.1919 32.1962 31.8257 33.2106 31.0933 34.0363C30.361 34.8621 29.4602 35.275 28.3912 35.275C27.3969 35.275 26.3063 34.9851 25.1196 34.4054V20.7555C25.1196 18.7101 25.3629 17.1762 25.8494 16.1534C26.3357 15.1309 27.0708 14.6195 28.0544 14.6195C28.8562 14.6195 29.4602 14.8738 29.8666 15.3824C30.2728 15.891 30.476 16.6485 30.476 17.6547C30.476 19.1312 30.0936 20.3699 29.3293 21.3707C28.5649 22.3715 27.6214 22.8718 26.4989 22.8718H26.0979Z" fill="#0FCB8C"/>
</svg>
